<?xml version="1.0" encoding="utf-8"?>
<!-- Generator: Adobe Illustrator 23.0.2, SVG Export Plug-In . SVG Version: 6.00 Build 0)  -->
<svg version="1.1" id="Layer_1" xmlns="http://www.w3.org/2000/svg" xmlns:xlink="http://www.w3.org/1999/xlink" x="0px" y="0px"
	 viewBox="0 0 48 48" style="enable-background:new 0 0 48 48;" xml:space="preserve">
<style type="text/css">
	.st0{fill:#FFA726;}
	.st1{fill:#FFB74D;}
	.st2{fill:#424242;}
	.st3{fill:#FF3D00;}
	.st4{fill:#C62302;}
</style>
<g id="surface1">
	<path class="st0" d="M14,27c0,2.2-1.8,4-4,4s-4-1.8-4-4s1.8-4,4-4S14,24.8,14,27"/>
	<path class="st0" d="M42,27c0,2.2-1.8,4-4,4s-4-1.8-4-4s1.8-4,4-4S42,24.8,42,27"/>
	<path class="st1" d="M9,20c0-12.7,30-8.3,30,0v10c0,8.3-6.7,15-15,15S9,38.3,9,30V20z"/>
	<path class="st2" d="M40.9,19.3c-0.5-6-2.8-11.4-10.1-12.9L29.1,3H24C14.8,3,7,10.5,7,21v3.4l3,3.6v-6l21-7l7,6v7l3-3.6V21
		C41,20.4,41,19.9,40.9,19.3"/>
	<path class="st3" d="M41,24c-0.2-0.8-0.1-1.5,0-2.2c0.1-0.6,0.4-1.2,0.7-1.7s0.8-0.9,1.3-1.3c0.5-0.4,1.1-0.7,2-0.8
		c0.2,0.8,0.1,1.5,0,2.2c-0.1,0.6-0.4,1.2-0.7,1.7c-0.3,0.5-0.8,0.9-1.3,1.3C42.4,23.5,41.9,23.8,41,24z"/>
	<path class="st3" d="M41,24.3c0,0-4.2,8.7-17,8.7S7,24.3,7,24.3V21c0,0,9,3,17,3s17-3,17-3V24.3z"/>
	<path class="st3" d="M45.5,26.1c-0.3-0.5-0.6-0.9-1-1.2s-0.9-0.6-1.5-0.7c-0.6-0.2-1.2-0.2-2-0.1c0,0.2-0.3,0.3,0,0.4
		c0.5,0.6,0.8,1.3,0.9,2.1c0.2,0.2,0.4,0.4,0.6,0.6c0.4,0.3,0.9,0.6,1.4,0.8c0.6,0.2,1.2,0.2,2,0.1C46,27.2,45.8,26.6,45.5,26.1z"/>
	<path class="st4" d="M41,24.3v-2.5c-0.4,0.3-0.8,0.6-1.2,0.9c-0.6,0.5-1.3,1-1.9,1.5c-0.6,0.5-1.3,1.1-1.9,1.8
		c0.9,0.1,1.8-0.1,2.7-0.4C39.5,25.3,40.3,24.8,41,24.3C41,24.3,41,24.3,41,24.3z"/>
	<path class="st4" d="M10.1,24.2c-0.6-0.5-1.2-1-1.9-1.5c-0.4-0.3-0.8-0.6-1.2-0.9v2.5c0,0,0,0,0,0c0.7,0.5,1.5,1,2.3,1.3
		c0.8,0.3,1.7,0.5,2.7,0.4C11.4,25.3,10.7,24.8,10.1,24.2z"/>
</g>
</svg>
